<?xml version="1.0" encoding="UTF-8" ?>
<!DOCTYPE svg PUBLIC "-//W3C//DTD SVG 1.1//EN" "http://www.w3.org/Graphics/SVG/1.1/DTD/svg11.dtd">
<svg width="512pt" height="513pt" viewBox="0 0 512 513" version="1.1" xmlns="http://www.w3.org/2000/svg">
<g id="#f3dbc1ff">
<path fill="#f3dbc1" opacity="1.00" d=" M 0.00 0.00 L 512.00 0.00 L 512.00 513.00 L 0.00 513.00 L 0.00 0.00 M 248.00 89.51 C 248.00 199.42 247.99 309.33 248.01 419.24 C 254.67 419.25 261.33 419.25 267.99 419.24 C 268.01 309.33 268.00 199.42 268.00 89.51 C 261.33 89.50 254.67 89.50 248.00 89.51 M 167.24 147.77 C 167.25 218.84 167.25 289.92 167.25 360.99 C 174.00 361.02 180.75 360.99 187.50 361.00 C 187.51 289.92 187.51 218.84 187.49 147.77 C 180.74 147.74 173.99 147.74 167.24 147.77 M 328.49 360.99 C 335.25 361.01 342.00 361.01 348.75 360.99 C 348.74 289.91 348.76 218.84 348.75 147.76 C 342.00 147.74 335.26 147.75 328.51 147.76 C 328.47 218.83 328.51 289.91 328.49 360.99 M 86.76 205.76 C 86.75 238.09 86.75 270.42 86.76 302.75 C 93.42 302.76 100.08 302.75 106.75 302.75 C 106.75 270.42 106.75 238.09 106.75 205.76 C 100.08 205.74 93.42 205.74 86.76 205.76 M 409.26 205.74 C 409.23 238.08 409.25 270.41 409.25 302.75 C 416.00 302.75 422.75 302.76 429.50 302.74 C 429.50 270.41 429.52 238.09 429.49 205.76 C 422.74 205.73 416.00 205.77 409.26 205.74 Z" />
</g>
<g id="#9c3636ff">
<path fill="#9c3636" opacity="1.00" d=" M 248.00 89.51 C 254.67 89.50 261.33 89.50 268.00 89.51 C 268.00 199.42 268.01 309.33 267.99 419.24 C 261.33 419.25 254.67 419.25 248.01 419.24 C 247.99 309.33 248.00 199.42 248.00 89.51 Z" />
<path fill="#9c3636" opacity="1.00" d=" M 167.24 147.77 C 173.99 147.74 180.74 147.74 187.49 147.77 C 187.51 218.84 187.51 289.92 187.50 361.00 C 180.75 360.99 174.00 361.02 167.25 360.99 C 167.25 289.92 167.25 218.84 167.24 147.77 Z" />
<path fill="#9c3636" opacity="1.00" d=" M 328.49 360.99 C 328.51 289.91 328.47 218.83 328.51 147.76 C 335.26 147.75 342.00 147.74 348.75 147.76 C 348.76 218.84 348.74 289.91 348.75 360.99 C 342.00 361.01 335.25 361.01 328.49 360.99 Z" />
<path fill="#9c3636" opacity="1.00" d=" M 86.76 205.76 C 93.42 205.74 100.08 205.74 106.75 205.76 C 106.75 238.09 106.75 270.42 106.75 302.75 C 100.08 302.75 93.42 302.76 86.76 302.75 C 86.75 270.42 86.75 238.09 86.76 205.76 Z" />
<path fill="#9c3636" opacity="1.00" d=" M 409.26 205.74 C 416.00 205.77 422.74 205.73 429.49 205.76 C 429.52 238.09 429.50 270.41 429.50 302.74 C 422.75 302.76 416.00 302.75 409.25 302.75 C 409.25 270.41 409.23 238.08 409.26 205.74 Z" />
</g>
</svg>
